<svg xmlns="http://www.w3.org/2000/svg" width="121.594" height="89.925" viewBox="0 0 121.594 89.925"><g id="Page-1" transform="translate(941 250)"><g id="Desktop" transform="translate(-941 -250)"><g id="Group-3"><g id="Group"><path id="Combined-Shape" fill="#006cff" fill-rule="evenodd" d="M146,368.489V323.611a9.793,9.793,0,0,0,6.264,0v44.878a9.795,9.795,0,0,0-6.264,0Z" transform="translate(-135.838 -301.087)"/><path id="Combined-Shape-2" fill="#006cff" fill-rule="evenodd" d="M713.971,275.387a9.86,9.86,0,0,0-3.949-3.949l-.24-.24,18.506-18.506a9.855,9.855,0,0,0,4.429,4.429l-18.506,18.506Z" data-name="Combined-Shape" transform="translate(-660.38 -235.104)"/><path id="Combined-Shape-Copy-6" fill="#006cff" fill-rule="evenodd" d="M4.189.24A9.859,9.859,0,0,1,.24,4.189L0,4.429,18.506,22.936a9.856,9.856,0,0,1,4.429-4.429L4.429,0Z" transform="translate(40.53 40.523) rotate(180)"/><path id="Combined-Shape-3" fill="#006cff" fill-rule="evenodd" d="M13.294,26.588A13.294,13.294,0,1,1,26.588,13.294,13.294,13.294,0,0,1,13.294,26.588Zm0-6.264a7.03,7.03,0,1,0-7.03-7.03A7.03,7.03,0,0,0,13.294,20.324Z" data-name="Combined-Shape"/><path id="Combined-Shape-Copy-4" fill="#006cff" fill-rule="evenodd" d="M468.294,481.588a13.294,13.294,0,1,1,13.294-13.294A13.294,13.294,0,0,1,468.294,481.588Zm0-6.264a7.03,7.03,0,1,0-7.03-7.03A7.03,7.03,0,0,0,468.294,475.324Z" transform="translate(-423.331 -423.331)"/><path id="Combined-Shape-Copy" fill="#006cff" fill-rule="evenodd" d="M923.294,26.588a13.294,13.294,0,1,1,13.294-13.294A13.294,13.294,0,0,1,923.294,26.588Zm0-6.264a7.03,7.03,0,1,0-7.03-7.03A7.03,7.03,0,0,0,923.294,20.324Z" transform="translate(-846.662)"/><path id="Combined-Shape-Copy-3" fill="#006cff" fill-rule="evenodd" d="M22.946,935.892a12.946,12.946,0,1,1,12.946-12.946A12.946,12.946,0,0,1,22.946,935.892Zm0-6.1a6.846,6.846,0,1,0-6.846-6.846A6.846,6.846,0,0,0,22.946,929.792Z" transform="translate(-9.304 -846.662)"/><path id="Combined-Shape-Copy-2" fill="#006cff" fill-rule="evenodd" d="M923.294,936.588a13.294,13.294,0,1,1,13.294-13.294A13.294,13.294,0,0,1,923.294,936.588Zm0-6.264a7.03,7.03,0,1,0-7.03-7.03A7.03,7.03,0,0,0,923.294,930.324Z" transform="translate(-846.662 -846.662)"/><path id="Combined-Shape-4" fill="#006cff" fill-rule="evenodd" d="M1247,146a34.8,34.8,0,0,1,0,69.6v-6.264a28.537,28.537,0,1,0,0-57.074Z" data-name="Combined-Shape" transform="translate(-1160.207 -135.838)"/></g></g></g></g></svg>