<svg xmlns="http://www.w3.org/2000/svg" xmlns:xlink="http://www.w3.org/1999/xlink" width="566" height="412" viewBox="0 0 566 412"><defs><clipPath id="clip-devops-guide"><rect width="566" height="412"/></clipPath></defs><g id="devops-guide" clip-path="url(#clip-devops-guide)"><rect width="566" height="412" fill="#fff"/><text id="Developer_Experience" fill="#262626" data-name="Developer Experience" font-family="HelveticaNeue-Bold, Helvetica Neue" font-size="20" font-weight="700" transform="translate(182 40)"><tspan x="0" y="20">Developer Experience</tspan></text><rect id="Rectangle_113" width="147" height="643" fill="#f5f5f5" data-name="Rectangle 113"/><line id="Line_38" y2="644" fill="none" stroke="#e2e2e2" stroke-width="1" data-name="Line 38" transform="translate(147.5 -0.5)"/><g id="Rectangle_114" fill="#fff" stroke="#e2e2e2" stroke-width="1" data-name="Rectangle 114" transform="translate(-1 -1)"><rect width="149" height="31" stroke="none"/><rect width="148" height="30" x=".5" y=".5" fill="none"/></g><g id="Rectangle_128" fill="none" stroke="#e2e2e2" stroke-width="1" data-name="Rectangle 128" transform="translate(-1 29)"><rect width="149" height="31" stroke="none"/><rect width="148" height="30" x=".5" y=".5" fill="none"/></g><g id="Rectangle_129" fill="none" stroke="#e2e2e2" stroke-width="1" data-name="Rectangle 129" transform="translate(-1 199)"><rect width="149" height="31" stroke="none"/><rect width="148" height="30" x=".5" y=".5" fill="none"/></g><g id="Rectangle_130" fill="none" stroke="#e2e2e2" stroke-width="1" data-name="Rectangle 130" transform="translate(-1 229)"><rect width="149" height="31" stroke="none"/><rect width="148" height="30" x=".5" y=".5" fill="none"/></g><text id="Type_to_search" fill="#8b8b8b" data-name="Type to search" font-family="HelveticaNeue, Helvetica Neue" font-size="11" transform="translate(10 18)"><tspan x="0" y="0">Type to search</tspan></text><text id="Developer_Experience-2" fill="#585858" data-name="Developer Experience" font-family="HelveticaNeue, Helvetica Neue" font-size="11" transform="translate(10 48)"><tspan x="0" y="0">Developer Experience</tspan></text><rect id="Rectangle_115" width="10" height="10" fill="#c3c3c3" data-name="Rectangle 115" transform="translate(162 10)"/><rect id="Rectangle_131" width="10" height="10" fill="#c3c3c3" data-name="Rectangle 131" transform="translate(125 390)"/><rect id="Rectangle_132" width="10" height="10" fill="#c3c3c3" data-name="Rectangle 132" transform="translate(105 390)"/><circle id="Ellipse_14" cx="5" cy="5" r="5" fill="#c3c3c3" data-name="Ellipse 14" transform="translate(188 10)"/><circle id="Ellipse_15" cx="5" cy="5" r="5" fill="#c3c3c3" data-name="Ellipse 15" transform="translate(502 10)"/><circle id="Ellipse_16" cx="5" cy="5" r="5" fill="#c3c3c3" data-name="Ellipse 16" transform="translate(522 10)"/><circle id="Ellipse_17" cx="5" cy="5" r="5" fill="#c3c3c3" data-name="Ellipse 17" transform="translate(542 10)"/><rect id="Rectangle_116" width="360" height="8" fill="#d3d3d3" data-name="Rectangle 116" transform="translate(182 84)"/><rect id="Rectangle_117" width="340" height="8" fill="#d3d3d3" data-name="Rectangle 117" transform="translate(182 104)"/><rect id="Rectangle_118" width="350" height="8" fill="#d3d3d3" data-name="Rectangle 118" transform="translate(182 124)"/><rect id="Rectangle_119" width="345" height="8" fill="#d3d3d3" data-name="Rectangle 119" transform="translate(182 164)"/><rect id="Rectangle_120" width="357" height="8" fill="#d3d3d3" data-name="Rectangle 120" transform="translate(182 184)"/><rect id="Rectangle_121" width="360" height="8" fill="#d3d3d3" data-name="Rectangle 121" transform="translate(182 204)"/><rect id="Rectangle_122" width="360" height="8" fill="#d3d3d3" data-name="Rectangle 122" transform="translate(182 224)"/><rect id="Rectangle_123" width="360" height="8" fill="#d3d3d3" data-name="Rectangle 123" transform="translate(182 294)"/><rect id="Rectangle_134" width="120" height="8" fill="#d3d3d3" data-name="Rectangle 134" transform="translate(10 211)"/><rect id="Rectangle_135" width="100" height="8" fill="#d3d3d3" data-name="Rectangle 135" transform="translate(10 241)"/><rect id="Rectangle_124" width="360" height="8" fill="#d3d3d3" data-name="Rectangle 124" transform="translate(182 314)"/><rect id="Rectangle_125" width="340" height="8" fill="#d3d3d3" data-name="Rectangle 125" transform="translate(182 334)"/><rect id="Rectangle_126" width="350" height="8" fill="#d3d3d3" data-name="Rectangle 126" transform="translate(182 354)"/><rect id="Rectangle_127" width="357" height="8" fill="#d3d3d3" data-name="Rectangle 127" transform="translate(182 374)"/><rect id="Rectangle_133" width="175" height="19" fill="#d3d3d3" data-name="Rectangle 133" transform="translate(182 264)"/><text id="Introduction_Developer_Code_Reviewer_Deploying_Beta_Software_User_Acceptance_Testing_Deploying_To_Production" fill="#585858" data-name="Introduction Developer Code Reviewer Deploying Beta Software User Acceptance Testing Deploying To Production" font-family="HelveticaNeue, Helvetica Neue" font-size="11" transform="translate(10 84)"><tspan x="0" y="0">Introduction</tspan><tspan x="0" y="17">Developer</tspan><tspan x="0" y="34">Code Reviewer</tspan><tspan x="0" y="51">Deploying Beta Software</tspan><tspan x="0" y="68">User Acceptance Testing</tspan><tspan x="0" y="85">Deploying To Production</tspan></text></g></svg>